{"title":"Dilwale (2015) Desi Scr Xvid {VikkyMaxx}","uid":13038276,"size":734592800,"categoryP":"video","categoryS":"movies","magnet":"?xt=urn:btih:9ab73477c7227687d853e45b1b02e40c2e1eb5fd&amp;dn=Dilwale+%282015%29+Desi+Scr+Xvid+%7BVikkyMaxx%7D&amp;tr=udp%3A%2F%2Ftracker.leechers-paradise.org%3A6969&amp;tr=udp%3A%2F%2Fzer0day.ch%3A1337&amp;tr=udp%3A%2F%2Fopen.demonii.com%3A1337&amp;tr=udp%3A%2F%2Ftracker.coppersurfer.tk%3A6969&amp;tr=udp%3A%2F%2Fexodus.desync.com%3A6969","seeders":0,"leechers":0,"uploader":"shailendramaxx","files":21,"time":1450504813,"description":"VikkyMaxx Presents :-\r\n\r\nDilwale (2015) DesiScr Xvid {VikkyMaxx}\r\n\r\n \nhttp://www.imdb.com/title/tt4535650\r\n\r\nRatings: 6.6/10  \r\n\r\nPlot : The children of two competing families meet again after a 15-year separation.\r\n\r\nCast:   Shah Rukh Khan, Kajol, Varun Dhawan            Kriti Sanon\r\n\r\nGeneral:-\r\n\r\nSource : Team ICTV (Thanks a lot) \r\nComplete name : Dilwale (2015) DesiScr Xvid {VikkyMaxx}\r\nFormat : AVI \r\nFormat/Info : Audio Video Interleave \r\nFile size : 689 MiB \r\nDuration : 2h 33mn \r\nOverall bit rate : 628 Kbps \r\n\r\nVideo;-\r\n \r\nID : 0 \r\nFormat : MPEG-4 Visual \r\nFormat profile : Advanced    \r\nFormat settings, BVOP : 2 \r\nFormat settings, QPel : No \r\nFormat settings, GMC : No warppoints \r\nFormat settings, Matrix : Default (H.263) \r\nCodec ID : XVID \r\nCodec ID/Hint : XviD \r\nDuration : 2h 33mn \r\nBit rate : 493 Kbps \r\nWidth : 640 pixels \r\nHeight : 272 pixels \r\nDisplay aspect ratio : 2.35:1 \r\nFrame rate : 29.970 fps \r\nColor space : YUV \r\nChroma subsampling : 4:2:0 \r\nBit depth : 8 bits \r\nScan type : Progressive \r\nCompression mode : Lossy \r\nBits/(Pixel*Frame) : 0.094 \r\nStream size : 541 MiB (78%) \r\nWriting library : XviD 1.2.1 (UTC 2008-12-04) \r\n\r\nAudio:-\r\n \r\nID : 1 \r\nFormat : MPEG Audio \r\nFormat version : Version 1 \r\nFormat profile : Layer 3 \r\nMode : Joint stereo \r\nMode extension : MS Stereo \r\nCodec ID : 55 \r\nCodec ID/Hint : MP3 \r\nDuration : 2h 33mn \r\nBit rate mode : Constant \r\nBit rate : 128 Kbps \r\nChannel(s) : 2 channels \r\nSampling rate : 48.0 KHz \r\nCompression mode : Lossy \r\nStream size : 140 MiB (20%) \r\nAlignment : Aligned on interleaves \r\nInterleave, duration : 133 ms (4.00 video frames) \r\nInterleave, preload duration : 216 ms \r\nTitle : VTS_01_1 T80 3_2ch 448Kbps DELAY 0ms \r\nWriting library : LAME3.99r \r\nEncoding settings : -m j -V 4 -q 2 -lowpass 17 -b 128 \r\n\r\nSCREENS :-\r\n\r\n \nhttp://i.imgur.com/G2HqmQe.png\r\n \nhttp://i.imgur.com/S8bBf8v.png\r\n \nhttp://i.imgur.com/TuEF1Z2.png\r\n \nhttp://i.imgur.com/FJf7puh.png\r\n \nhttp://i.imgur.com/CT0LRYH.png]\r\n \nhttp://i.imgur.com/KYTSwz8.png\r\n \nhttp://i.imgur.com/5rCzlou.png\r\n \nhttp://i.imgur.com/nGKR8N6.png\r\n \nhttp://i.imgur.com/zjyzxMX.png\r\n \nhttp://i.imgur.com/VxTvRbX.png\r\n \nhttp://i.imgur.com/n2qcw9M.png\r\n\r\n\r\n\r\n                         \r\n               ********** PLEASE SEED AS LONG AS YOU CAN AFTER DOWNLOAD **********\r\n                       \r\n                              ***** THANK YOU REGARDS - VikkyMaxx *****","torrent":{"xt":"urn:btih:9ab73477c7227687d853e45b1b02e40c2e1eb5fd","amp;dn":"Dilwale+%282015%29+Desi+Scr+Xvid+%7BVikkyMaxx%7D","amp;tr":["udp%3A%2F%2Ftracker.leechers-paradise.org%3A6969","udp%3A%2F%2Fzer0day.ch%3A1337","udp%3A%2F%2Fopen.demonii.com%3A1337","udp%3A%2F%2Ftracker.coppersurfer.tk%3A6969","udp%3A%2F%2Fexodus.desync.com%3A6969"],"infoHash":"9ab73477c7227687d853e45b1b02e40c2e1eb5fd","infoHashBuffer":{"type":"Buffer","data":[154,183,52,119,199,34,118,135,216,83,228,91,27,2,228,12,46,30,181,253]},"announce":[],"urlList":[]}}